<?xml version="1.0" standalone="no"?>
<!DOCTYPE svg PUBLIC "-//W3C//DTD SVG 20010904//EN"
 "http://www.w3.org/TR/2001/REC-SVG-20010904/DTD/svg10.dtd">
<svg version="1.0" xmlns="http://www.w3.org/2000/svg"
 width="197.000000pt" height="197.000000pt" viewBox="0 0 197.000000 197.000000"
 preserveAspectRatio="xMidYMid meet">
<metadata>
Created by potrace 1.14, written by Peter Selinger 2001-2017
</metadata>
<g transform="translate(0.000000,197.000000) scale(0.100000,-0.100000)"
fill="#000000" stroke="none">
<path d="M929 1658 c-11 -41 -16 -80 -18 -125 -2 -47 -80 -19 -81 28 0 26 -72
118 -92 119 -14 0 -27 -94 -32 -232 -2 -54 -15 -63 -60 -42 -20 10 -36 21 -36
26 0 4 -7 8 -15 8 -8 0 -15 5 -15 11 0 5 -5 7 -10 4 -6 -3 -13 1 -16 9 -3 9
-13 16 -20 16 -8 0 -17 7 -20 15 -4 8 -10 12 -15 9 -5 -3 -9 0 -9 5 0 6 -7 11
-15 11 -8 0 -15 5 -15 10 0 6 -7 10 -15 10 -8 0 -15 5 -15 10 0 6 -4 10 -9 10
-9 0 -99 57 -111 69 -11 12 -50 31 -65 31 -19 0 -19 -11 0 -35 23 -29 97 -129
117 -156 35 -48 197 -264 208 -276 14 -16 13 -30 -3 -36 -11 -4 -120 -207
-201 -374 -6 -13 -14 -23 -18 -23 -5 0 -8 -4 -8 -10 0 -5 -18 -35 -40 -66 -22
-32 -40 -68 -40 -81 0 -13 -4 -22 -9 -19 -7 5 -6 -34 3 -84 5 -31 66 -148 91
-176 10 -10 69 -26 105 -29 40 -3 137 46 194 97 10 9 43 28 73 43 44 21 73 26
153 29 54 2 102 6 108 10 13 8 25 -22 37 -99 10 -66 38 -135 54 -136 100 -7
180 -4 207 8 18 8 51 34 74 59 22 24 44 44 48 45 4 0 14 2 22 4 8 2 28 6 43 9
16 3 44 17 63 31 31 24 35 25 41 8 10 -30 53 -83 67 -83 13 0 16 46 4 66 -3 5
-4 50 -1 99 9 198 5 421 -11 495 -13 66 -60 160 -78 160 -5 0 -8 6 -8 14 0 8
-4 16 -9 18 -11 4 -81 96 -81 106 0 5 -8 17 -17 28 -10 11 -27 36 -38 56 -58
105 -139 153 -278 163 -54 3 -57 5 -84 55 -29 55 -75 120 -84 120 -5 0 -13
-19 -20 -42z"/>
</g>
</svg>
